<?xml version="1.0" standalone="no"?>
<!DOCTYPE svg PUBLIC "-//W3C//DTD SVG 20010904//EN"
 "http://www.w3.org/TR/2001/REC-SVG-20010904/DTD/svg10.dtd">
<svg version="1.0" xmlns="http://www.w3.org/2000/svg"
 width="1024.000000pt" height="1024.000000pt" viewBox="0 0 1024.000000 1024.000000"
 preserveAspectRatio="xMidYMid meet">

<g transform="translate(0.000000,1024.000000) scale(0.100000,-0.100000)"
fill="#000000" stroke="none">
<path d="M4790 10223 c-479 -33 -971 -135 -1398 -290 -695 -250 -1331 -650
-1853 -1164 -156 -154 -265 -273 -354 -384 -22 -27 -43 -52 -46 -55 -21 -18
-211 -278 -281 -385 -459 -699 -723 -1430 -824 -2285 -25 -211 -30 -721 -10
-950 70 -797 296 -1515 684 -2175 480 -815 1151 -1462 1988 -1918 560 -305
1195 -501 1889 -584 189 -22 845 -26 1020 -5 601 70 1067 191 1544 399 716
312 1322 757 1841 1354 108 122 111 127 227 282 302 404 535 836 712 1320 140
384 226 761 283 1252 8 71 13 243 13 485 0 379 -4 444 -45 730 -81 558 -237
1054 -492 1565 -107 215 -179 337 -331 565 -62 94 -241 337 -257 350 -3 3 -27
32 -54 65 -56 70 -234 264 -321 350 -540 536 -1191 945 -1906 1198 -180 64
-245 84 -434 131 -288 71 -604 123 -889 146 -116 9 -592 11 -706 3z m665 -124
c652 -42 1276 -210 1860 -499 333 -164 513 -275 815 -499 41 -31 86 -66 100
-77 14 -12 68 -57 120 -100 134 -110 475 -454 604 -609 232 -279 438 -590 601
-908 134 -261 210 -441 295 -696 180 -542 260 -1031 260 -1586 0 -1222 -424
-2353 -1231 -3289 -119 -138 -443 -452 -597 -577 -981 -801 -2213 -1199 -3473
-1120 -592 37 -1190 183 -1714 416 -1001 447 -1868 1251 -2371 2200 -306 579
-490 1164 -565 1805 -39 332 -36 835 6 1177 88 706 344 1428 718 2023 455 725
1136 1367 1852 1745 61 32 128 68 150 80 75 41 270 127 405 180 460 180 981
299 1455 333 174 13 526 14 710 1z"/>
<path d="M6671 9419 c-19 -16 -22 -25 -17 -54 9 -48 -24 -122 -109 -242 -15
-22 -22 -23 -153 -23 -123 0 -141 2 -179 22 -39 21 -44 22 -59 6 -15 -15 -14
-21 16 -77 32 -60 34 -61 74 -61 23 0 66 7 96 15 74 20 120 20 120 0 0 -59
-228 -155 -368 -155 -88 0 -77 -21 19 -36 41 -7 88 -20 106 -29 38 -19 106
-10 200 27 52 21 62 30 108 99 27 42 67 88 87 103 41 30 216 96 253 96 19 0
25 5 25 23 0 13 -6 31 -13 42 -15 19 -37 13 -37 -10 0 -23 -122 -62 -160 -50
-31 10 -24 30 21 66 23 18 49 45 59 61 16 27 16 31 0 78 -10 28 -26 61 -37 73
-11 12 -22 27 -24 34 -3 8 -12 5 -28 -8z"/>
<path d="M3927 9410 c-24 -19 -29 -33 -53 -157 -6 -31 -44 -30 -72 2 -23 26
-58 39 -89 33 -12 -2 -21 -17 -27 -43 -4 -22 -13 -56 -20 -75 -15 -45 -45 -47
-65 -5 -17 36 -28 45 -58 45 -34 0 -63 -34 -63 -74 0 -47 -18 -58 -79 -50 -52
7 -65 -2 -36 -26 8 -7 15 -23 15 -37 0 -73 82 -135 110 -83 8 14 8 31 -1 59
-9 30 -9 44 2 66 20 40 34 41 58 2 27 -45 28 -126 1 -186 -11 -24 -20 -56 -20
-73 0 -24 6 -32 36 -44 50 -21 64 -16 92 36 21 40 23 53 17 110 -13 121 -12
145 7 144 13 -1 16 8 16 42 0 55 11 104 22 104 20 0 28 -40 32 -155 5 -119 23
-195 48 -195 6 0 22 11 35 25 32 31 34 93 6 119 -11 10 -19 30 -19 46 1 15 -7
51 -18 79 -12 36 -15 57 -9 67 17 26 29 19 45 -23 21 -56 38 -73 71 -73 26 0
28 2 23 29 -5 21 -2 30 12 35 9 4 21 3 26 -2 10 -10 36 -108 48 -181 9 -54 40
-101 67 -101 16 0 71 75 79 107 4 14 -3 38 -19 65 -13 24 -27 55 -31 70 -3 15
-17 44 -31 64 -31 45 -39 90 -31 166 l6 59 -35 15 c-46 19 -68 18 -98 -6z m33
-180 c0 -28 -2 -30 -20 -20 -22 12 -22 12 -14 34 11 28 34 18 34 -14z"/>
<path d="M6661 8788 c0 -46 -8 -110 -16 -142 -9 -32 -14 -60 -12 -62 2 -2 29
-4 60 -5 99 -3 107 21 50 163 -34 89 -57 128 -74 128 -4 0 -8 -37 -8 -82z"/>
<path d="M4945 8709 c-353 -16 -715 -89 -1065 -216 -764 -277 -1441 -844
-1854 -1551 -258 -444 -409 -894 -473 -1412 -24 -199 -24 -608 1 -810 82 -680
334 -1289 752 -1820 86 -110 264 -304 349 -382 28 -25 65 -60 84 -77 126 -117
343 -276 527 -387 440 -263 890 -420 1414 -491 193 -26 687 -26 880 0 854 116
1587 489 2170 1102 254 267 461 569 630 919 241 498 367 1101 346 1656 -19
519 -136 996 -356 1445 -165 339 -351 611 -593 870 -317 339 -631 576 -1036
780 -428 215 -928 351 -1371 370 -63 3 -144 7 -180 9 -36 1 -137 -1 -225 -5z
m610 -143 c215 -29 379 -64 560 -118 91 -28 332 -118 415 -155 36 -17 88 -40
115 -53 133 -60 484 -279 600 -374 578 -472 951 -1002 1169 -1661 201 -607
225 -1255 71 -1920 -28 -122 -131 -417 -199 -570 -134 -304 -341 -627 -560
-875 -22 -25 -101 -106 -175 -180 -404 -401 -871 -680 -1431 -853 -654 -202
-1411 -196 -2055 18 -231 76 -307 107 -504 205 -199 100 -447 259 -621 401
-132 107 -384 355 -486 479 -375 453 -636 1005 -738 1561 -43 232 -58 397 -58
644 -1 404 44 705 161 1070 106 330 238 598 439 895 100 147 124 177 258 330
196 222 425 426 651 579 114 77 172 112 335 205 26 14 100 50 165 80 376 170
739 267 1141 306 131 13 618 4 747 -14z"/>
<path d="M5099 7864 c0 -5 0 -65 1 -134 1 -89 -4 -137 -15 -169 -9 -27 -15
-78 -15 -133 0 -85 -2 -92 -30 -128 l-30 -38 0 -161 0 -161 -45 0 -45 0 0
-295 0 -295 -45 0 c-45 0 -45 0 -45 35 0 35 0 35 -45 35 l-45 0 0 -175 0 -175
-665 0 -665 0 0 105 0 105 -35 0 c-32 0 -35 -2 -35 -29 l0 -30 -120 -3 -120
-3 0 33 c0 32 -1 33 -36 30 l-36 -3 -2 -100 -1 -100 -517 -3 -518 -2 0 -675 0
-675 3115 0 3115 0 0 675 0 675 -518 0 -517 0 0 103 0 102 -37 3 c-37 3 -38 2
-38 -30 l0 -33 -120 3 -120 3 0 30 c0 27 -3 29 -35 29 l-35 0 0 -105 0 -105
-665 0 -665 0 0 175 0 175 -44 0 c-44 0 -45 -1 -48 -35 -2 -20 -6 -35 -10 -35
-5 0 -25 0 -45 0 l-38 0 3 295 3 295 -46 0 -45 0 0 163 -1 162 -29 39 c-28 37
-30 46 -30 127 0 52 -6 104 -15 130 -12 32 -15 79 -14 172 0 71 -2 131 -5 134
-3 4 -6 2 -7 -3z m46 -634 l26 -10 -3 -137 -3 -138 -62 -3 -63 -3 0 141 c0
137 1 141 23 150 30 12 51 12 82 0z m65 -632 l0 -253 -105 3 -105 3 0 250 0
249 105 0 105 0 0 -252z m170 -433 l0 -95 -275 0 -275 0 0 95 0 95 275 0 275
0 0 -95z m-2040 -60 l0 -35 -120 0 -120 0 0 35 0 35 120 0 120 0 0 -35z m3770
0 l0 -35 -120 0 -120 0 0 35 0 35 120 0 120 0 0 -35z m-330 -160 l0 -55 -43 0
c-38 0 -44 3 -54 30 -8 22 -18 30 -35 30 -29 0 -48 -17 -48 -42 0 -15 -8 -18
-49 -18 -44 0 -49 3 -55 25 -4 15 -16 27 -31 31 -29 7 -43 -1 -55 -32 -8 -20
-16 -24 -54 -24 -38 0 -45 3 -50 24 -7 27 -35 41 -66 31 -11 -3 -23 -17 -26
-31 -5 -21 -12 -24 -54 -24 -42 0 -49 3 -52 21 -7 50 -61 50 -83 1 -8 -18 -18
-22 -57 -22 -42 0 -48 3 -48 20 0 27 -45 48 -68 33 -9 -5 -18 -20 -20 -32 -3
-18 -10 -21 -51 -21 -43 0 -48 3 -58 30 -16 42 -57 42 -81 0 -14 -25 -23 -30
-57 -30 -34 0 -43 5 -57 30 -9 17 -25 30 -34 30 -21 0 -54 -28 -54 -47 0 -9
-14 -13 -42 -13 -37 0 -45 4 -60 30 -10 17 -25 30 -37 30 -23 0 -51 -25 -51
-46 0 -10 -13 -14 -50 -14 -41 0 -50 3 -50 18 0 24 -19 42 -45 42 -26 0 -45
-18 -45 -42 0 -15 -8 -18 -48 -18 -44 0 -49 2 -59 30 -16 42 -57 42 -81 0 -15
-26 -23 -30 -58 -30 -36 0 -43 3 -48 24 -11 46 -79 46 -90 1 -6 -22 -12 -25
-49 -25 -36 0 -44 4 -59 30 -10 17 -25 30 -37 30 -23 0 -51 -25 -51 -46 0 -10
-13 -14 -49 -14 -43 0 -50 3 -53 21 -2 12 -11 27 -20 32 -23 15 -68 -6 -68
-33 0 -17 -6 -20 -50 -20 -44 0 -50 3 -50 20 0 27 -45 48 -68 33 -9 -5 -18
-20 -20 -32 -3 -18 -10 -21 -52 -21 -43 0 -49 3 -54 25 -8 33 -50 44 -76 20
-11 -10 -20 -24 -20 -32 0 -9 -14 -13 -45 -13 -39 0 -45 3 -51 25 -11 45 -79
45 -90 -1 -5 -21 -12 -24 -55 -24 -41 0 -49 3 -49 19 0 48 -74 53 -86 6 -5
-22 -12 -25 -50 -25 l-44 0 0 55 0 55 1675 0 1675 0 0 -55z m-3420 -565 l0
-580 -100 0 -100 0 0 580 0 580 100 0 100 0 0 -580z m3690 0 l0 -580 -100 0
-100 0 0 580 0 580 100 0 100 0 0 -580z m-4710 425 l0 -125 -138 0 c-76 0
-141 2 -143 4 -2 2 -3 59 -1 125 l3 121 140 0 139 0 0 -125z m350 -140 l0
-265 -40 0 -40 0 0 -115 0 -115 -62 0 -63 0 2 101 c1 55 -1 107 -4 115 -3 8
-19 14 -39 14 l-34 0 0 258 c0 142 3 262 7 265 3 4 66 7 140 7 l133 0 0 -265z
m400 140 l0 -125 -160 0 -160 0 0 125 0 125 160 0 160 0 0 -125z m4350 0 l0
-125 -160 0 -160 0 0 125 0 125 160 0 160 0 0 -125z m358 -142 l2 -262 -37 -3
c-25 -2 -38 -8 -39 -18 -1 -8 -2 -59 -2 -112 l-2 -98 -60 0 -60 0 0 115 0 115
-40 0 -40 0 0 265 0 266 138 -3 137 -3 3 -262z m352 142 l0 -125 -140 0 -140
0 0 118 c0 65 3 122 7 125 3 4 66 7 140 7 l133 0 0 -125z m-4630 15 l0 -50 45
0 45 0 0 50 0 50 50 0 50 0 0 -50 0 -50 50 0 50 0 0 50 0 50 45 0 45 0 0 -50
0 -50 50 0 50 0 0 50 0 50 50 0 50 0 0 -50 0 -50 45 0 45 0 0 50 0 50 50 0 50
0 0 -50 0 -50 44 0 45 0 3 48 3 47 48 3 47 3 0 -50 0 -51 50 0 50 0 0 50 0 50
45 0 45 0 0 -50 0 -50 50 0 50 0 0 50 0 50 45 0 45 0 0 -50 0 -50 50 0 50 0 0
50 0 50 50 0 50 0 0 -50 0 -50 45 0 45 0 0 50 0 50 50 0 50 0 0 -50 0 -50 50
0 50 0 0 50 0 50 45 0 45 0 0 -50 0 -50 50 0 50 0 0 50 0 50 45 0 45 0 0 -50
0 -50 50 0 50 0 0 50 0 50 50 0 50 0 0 -50 0 -50 45 0 45 0 0 50 0 50 50 0 50
0 0 -50 0 -50 45 0 45 0 0 50 0 50 50 0 50 0 0 -50 0 -50 50 0 50 0 0 50 0 50
45 0 45 0 0 -50 0 -50 50 0 50 0 0 50 0 50 50 0 50 0 0 -50 0 -50 45 0 45 0 0
50 0 50 45 0 45 0 0 -70 0 -70 -1675 0 -1675 0 0 70 0 70 45 0 45 0 0 -50z m0
-200 l0 -80 45 0 45 0 0 80 0 80 50 0 50 0 0 -80 0 -80 50 0 50 0 0 80 0 80
45 0 45 0 0 -80 0 -80 50 0 50 0 0 80 0 80 50 0 50 0 0 -80 0 -80 45 0 45 0 0
80 0 80 50 0 50 0 0 -80 0 -80 45 0 45 0 0 80 0 80 50 0 50 0 0 -80 0 -80 50
0 50 0 0 80 0 80 45 0 45 0 0 -65 c0 -51 -3 -65 -15 -65 -11 0 -15 -11 -15
-40 l0 -40 -605 0 -605 0 0 105 0 105 45 0 45 0 0 -80z m1345 15 l0 -65 -47 0
-48 0 0 65 0 65 48 0 47 0 0 -65z m195 0 l0 -65 -50 0 -50 0 0 65 0 65 50 0
50 0 0 -65z m190 0 l0 -65 -50 0 -50 0 0 65 0 65 50 0 50 0 0 -65z m190 0 l0
-65 -45 0 -45 0 0 65 0 65 45 0 45 0 0 -65z m190 -15 l0 -80 50 0 50 0 0 80 0
80 50 0 50 0 0 -80 0 -80 45 0 45 0 0 80 0 80 50 0 50 0 0 -80 0 -80 45 0 45
0 0 80 0 80 50 0 50 0 0 -80 0 -80 50 0 50 0 0 80 0 80 45 0 45 0 0 -80 0 -80
50 0 50 0 0 80 0 80 50 0 50 0 0 -80 0 -80 45 0 45 0 0 80 0 80 45 0 45 0 0
-105 0 -105 -605 0 -605 0 0 40 c0 29 -4 40 -15 40 -12 0 -15 14 -15 65 l0 65
45 0 45 0 0 -80z m-3290 -100 l0 -150 -139 0 -140 0 -3 146 c-2 80 -1 148 1
150 2 2 67 4 143 4 l138 0 0 -150z m750 0 l0 -150 -159 0 -160 0 -3 118 c-2
64 -2 132 0 150 l3 32 160 0 159 0 0 -150z m4350 0 l0 -150 -160 0 -160 0 0
150 0 150 160 0 160 0 0 -150z m711 0 l0 -145 -140 -3 -141 -3 0 151 0 151
141 -3 140 -3 0 -145z m-2611 -20 l0 -40 285 0 285 0 0 -130 0 -130 -220 0
-220 0 -1 58 0 57 -114 75 c-63 41 -115 78 -115 83 0 4 -147 7 -327 7 l-328
-1 -120 -83 c-66 -45 -121 -88 -121 -94 -1 -7 -2 -32 -3 -57 l-1 -45 -217 2
-218 3 -3 128 -3 127 286 0 285 0 0 40 0 40 435 0 435 0 0 -40z m-1980 -170
l0 -131 -62 3 -63 3 -3 128 -3 127 66 0 65 0 0 -130z m170 0 l0 -130 -75 0
-75 0 0 130 0 130 75 0 75 0 0 -130z m180 0 l0 -130 -75 0 -75 0 0 130 0 130
75 0 75 0 0 -130z m170 0 l0 -130 -75 0 -75 0 0 130 0 130 75 0 75 0 0 -130z
m2200 0 l0 -131 -77 3 c-43 2 -77 6 -75 11 1 4 2 61 2 127 l0 120 75 0 75 0 0
-130z m170 10 c0 -66 1 -123 3 -127 1 -5 -33 -9 -75 -11 l-78 -3 0 131 0 130
75 0 75 0 0 -120z m180 -10 l0 -130 -75 0 -75 0 0 130 0 130 75 0 75 0 0 -130z
m148 3 l-3 -128 -62 -3 -63 -3 0 131 0 130 65 0 66 0 -3 -127z m-1358 15 l29
-33 1 -257 0 -258 -40 0 -40 0 0 206 c0 216 -2 227 -49 277 -47 51 -68 57
-219 57 -139 0 -139 0 -181 -30 -78 -57 -81 -67 -81 -302 l0 -208 -40 0 -40 0
0 257 0 257 32 33 32 33 283 0 283 0 30 -32z m-2985 -113 l0 -120 -185 0 -185
0 -5 118 c-3 65 -4 119 -3 120 1 1 86 2 190 2 l188 0 0 -120z m655 -3 l0 -122
-217 2 -218 3 -3 109 c-1 61 -1 115 2 121 3 9 63 12 220 11 l216 -1 0 -123z
m4465 3 l0 -120 -217 -3 -218 -2 0 123 0 123 218 -1 217 0 0 -120z m596 4 c-1
-62 -4 -116 -7 -121 -3 -4 -87 -6 -187 -5 l-182 2 -3 109 c-1 61 -1 115 2 122
4 10 49 12 192 9 l186 -3 -1 -113z m-2907 47 c60 -25 66 -49 66 -281 l0 -205
-30 0 -30 0 0 185 0 185 -145 0 -145 0 0 -185 0 -185 -30 0 -30 0 0 204 c0
113 4 216 10 230 18 49 59 63 185 65 81 1 124 -2 149 -13z m1536 -296 l0 -190
-50 0 -50 0 0 160 0 160 -35 0 -35 0 0 -160 0 -160 -55 0 -55 0 0 160 0 160
-35 0 -35 0 0 -160 0 -160 -50 0 -50 0 0 160 0 160 -35 0 -35 0 0 -160 0 -160
-55 0 -55 0 0 160 0 160 -35 0 -35 0 0 -160 0 -160 -205 0 -205 0 0 193 0 192
555 -3 555 -2 0 -190z m-2238 0 l-3 -190 -204 0 -205 0 0 160 0 160 -35 0 -35
0 0 -161 0 -160 -52 3 -53 3 0 158 0 157 -37 0 -38 0 0 -160 0 -160 -50 0 -50
0 0 160 0 160 -35 0 -35 0 0 -160 0 -160 -55 0 -55 0 0 160 0 160 -35 0 -35 0
0 -160 0 -160 -50 0 -50 0 0 190 0 190 558 0 557 0 -3 -190z m-2042 16 l0 -94
-75 -4 -75 -3 0 73 0 72 -35 0 -35 0 0 -70 c0 -73 -1 -74 -47 -70 -21 1 -23
-3 -23 -54 l0 -56 -75 0 -75 0 0 150 0 150 220 0 220 0 0 -94z m590 -56 l0
-150 -99 0 -100 0 -3 53 c-3 47 -5 52 -25 51 -22 -1 -23 3 -23 73 l0 74 -36
-3 -37 -3 -1 -68 -1 -69 -85 0 -85 0 -3 83 c-2 45 -1 88 2 96 4 10 55 13 251
13 l245 0 0 -150z m4525 53 c0 -51 -3 -93 -7 -93 -5 0 -44 0 -88 0 l-80 0 0
71 0 70 -32 -3 -33 -3 -5 -70 c-4 -62 -7 -70 -25 -70 -17 0 -20 -8 -23 -52
l-3 -53 -100 0 -99 0 0 150 0 150 248 -2 247 -3 0 -92z m535 -53 l0 -150 -75
0 -75 0 0 55 0 55 -35 0 -35 0 0 70 0 70 -35 0 -35 0 0 -72 0 -73 -75 0 -75 0
0 97 0 96 220 1 220 1 0 -150z m-2961 125 c7 -4 11 -56 11 -141 l0 -134 -95 0
-95 0 0 134 0 134 28 11 c28 11 132 8 151 -4z"/>
<path d="M4830 4610 l0 -40 275 0 275 0 0 40 0 40 -275 0 -275 0 0 -40z"/>
<path d="M4680 4505 l0 -35 425 0 425 0 0 35 0 35 -425 0 -425 0 0 -35z"/>
<path d="M4530 4400 l0 -40 575 0 575 0 0 40 0 40 -575 0 -575 0 0 -40z"/>
<path d="M4785 3571 c-100 -25 -153 -82 -161 -172 -13 -135 116 -232 246 -186
24 9 46 14 49 11 10 -10 -18 -136 -34 -154 -38 -42 -98 -32 -117 21 -10 28
-12 29 -75 29 l-65 0 6 -32 c16 -82 60 -111 175 -115 113 -5 152 15 196 101
28 55 30 69 34 183 6 224 -37 300 -179 316 -25 3 -58 2 -75 -2z m117 -128 c24
-54 18 -104 -17 -139 -33 -32 -70 -31 -106 5 -68 69 -11 200 79 183 17 -3 30
-18 44 -49z"/>
<path d="M5303 3567 c-78 -29 -119 -98 -136 -228 -19 -153 14 -278 90 -336 32
-25 45 -28 108 -28 62 0 77 4 112 28 123 85 134 407 18 523 -48 49 -126 65
-192 41z m94 -87 c36 -33 48 -87 48 -215 0 -131 -13 -187 -49 -210 -31 -21
-62 -8 -83 33 -15 31 -18 62 -18 182 0 152 10 194 52 219 24 14 26 14 50 -9z"/>
<path d="M5820 3564 c-90 -24 -140 -89 -140 -181 1 -65 29 -125 73 -152 49
-30 122 -37 171 -17 21 9 40 16 42 16 2 0 4 -21 4 -47 0 -59 -26 -114 -63
-131 -38 -18 -66 -6 -83 34 -14 34 -15 34 -78 34 l-64 0 7 -33 c18 -80 56
-108 152 -115 91 -6 133 3 174 39 57 50 78 122 79 269 1 99 -3 135 -17 172
-22 56 -72 103 -124 117 -48 14 -66 13 -133 -5z m95 -74 c48 -18 70 -112 40
-169 -24 -48 -81 -56 -120 -16 -20 19 -25 34 -25 74 0 63 16 98 49 110 14 5
27 10 28 10 1 1 13 -3 28 -9z"/>
<path d="M4255 3532 c-33 -21 -68 -41 -77 -45 -14 -5 -18 -18 -18 -62 0 -30 2
-55 5 -55 9 0 78 35 108 54 l27 18 0 -236 0 -236 65 0 65 0 0 300 0 300 -57 0
c-50 0 -67 -6 -118 -38z"/>
<path d="M8544 8241 c-53 -66 -184 -244 -184 -251 0 -8 37 -16 126 -26 40 -5
55 -12 64 -29 7 -13 23 -28 37 -34 32 -15 30 -64 -4 -69 -40 -6 -228 47 -310
88 -44 22 -86 40 -92 40 -6 0 -15 -9 -21 -21 -26 -48 32 -107 122 -124 20 -4
87 -10 149 -13 97 -6 114 -10 117 -24 5 -25 -44 -43 -77 -28 -51 23 -40 -8 18
-48 95 -67 145 -53 115 33 -21 64 -8 78 46 47 21 -12 41 -22 44 -22 4 0 6 18
6 40 0 55 23 67 137 73 96 5 123 15 123 48 0 13 -21 29 -69 53 -42 21 -70 43
-74 55 -2 11 10 59 29 108 39 103 41 119 14 128 -15 5 -31 -2 -56 -24 -38 -34
-59 -38 -87 -16 -28 20 -48 9 -37 -21 14 -37 2 -52 -46 -60 -58 -8 -64 -21
-15 -29 22 -4 46 -13 53 -22 10 -13 8 -18 -11 -34 -28 -23 -74 -25 -91 -4 -20
25 -40 18 -40 -14 0 -16 -6 -34 -14 -40 -20 -17 -70 -10 -74 11 -2 9 24 54 58
101 58 81 87 142 72 151 -4 2 -17 -8 -28 -23z m207 -241 c29 -16 25 -65 -6
-86 -31 -20 -90 -12 -104 15 -28 52 50 102 110 71z"/>
<path d="M8361 8190 c-13 -28 -38 -73 -57 -100 -39 -56 -40 -60 -19 -60 22 0
103 115 111 156 11 58 -10 60 -35 4z"/>
<path d="M1366 8155 c-14 -54 6 -152 55 -272 35 -87 38 -168 10 -243 -15 -39
-16 -50 -6 -50 20 0 82 78 101 126 18 48 40 62 62 40 12 -12 13 -28 2 -113
-18 -140 -18 -138 5 -141 34 -5 54 20 65 78 19 99 47 94 51 -10 4 -100 27
-125 67 -70 37 49 41 45 62 -62 14 -70 32 -93 62 -77 24 13 18 52 -14 87 -20
20 -20 22 -3 22 10 0 33 -9 52 -21 44 -27 63 -19 63 26 0 52 -15 73 -56 81
-20 4 -38 13 -41 20 -3 8 -13 14 -23 14 -24 0 -52 47 -80 133 l-22 69 -35 -7
c-44 -8 -64 7 -57 44 4 18 0 32 -10 40 -12 10 -25 6 -76 -28 -48 -32 -62 -37
-66 -26 -11 29 5 65 29 65 41 0 50 13 38 56 -16 58 -14 70 18 106 l28 32 141
-105 c222 -164 292 -213 360 -254 34 -21 62 -43 62 -50 0 -6 -20 -30 -45 -52
-25 -22 -45 -45 -45 -52 0 -6 17 -11 41 -11 22 0 60 -5 84 -11 54 -14 91 -6
105 21 18 33 4 52 -78 107 -298 198 -540 379 -596 444 -18 22 -37 39 -43 39
-17 0 -66 -130 -68 -178 -2 -36 -8 -49 -29 -64 -23 -18 -26 -26 -26 -81 0 -66
-12 -99 -29 -82 -14 14 -32 203 -24 251 3 21 17 61 29 88 13 27 21 53 18 58
-3 4 -22 5 -44 2 -30 -5 -42 -2 -59 15 -26 26 -27 26 -35 -4z"/>
<path d="M7946 7864 c-3 -8 -3 -40 0 -71 5 -41 14 -61 32 -79 28 -25 98 -44
162 -44 34 0 40 -3 40 -21 0 -50 -49 -109 -91 -109 -5 0 -40 20 -77 45 -53 36
-68 42 -70 29 -2 -9 8 -28 21 -42 32 -34 47 -72 47 -121 0 -40 8 -46 76 -65
53 -15 131 47 183 144 33 61 45 70 92 70 37 0 52 33 41 88 -8 36 -9 37 -63 44
-88 11 -324 105 -344 138 -10 16 -42 12 -49 -6z"/>
<path d="M1222 7844 c-25 -17 -29 -34 -9 -34 8 0 24 -11 37 -25 29 -31 31 -77
5 -134 -10 -23 -15 -44 -12 -47 11 -11 98 -5 113 7 8 6 15 32 15 58 1 25 4 60
8 76 10 47 -12 99 -46 106 -51 12 -88 9 -111 -7z"/>
<path d="M1945 7684 c-11 -3 -31 -7 -44 -10 -22 -5 -18 -9 35 -35 32 -17 69
-40 82 -52 l24 -22 29 33 c16 18 29 37 29 42 0 28 -102 57 -155 44z"/>
<path d="M1535 7398 c22 -71 98 -179 144 -202 24 -13 29 -12 64 14 l38 28 -38
31 c-21 17 -43 31 -50 31 -7 0 -42 27 -79 60 -71 64 -89 73 -79 38z"/>
<path d="M876 5405 c-61 -32 -82 -75 -73 -153 4 -38 12 -53 42 -78 98 -85 235
-23 235 107 0 106 -110 173 -204 124z"/>
<path d="M9355 5402 c-38 -24 -50 -39 -64 -84 -33 -101 67 -205 170 -178 97
26 139 123 93 213 -33 62 -135 88 -199 49z"/>
<path d="M1239 3925 c-1 -6 0 -24 1 -41 2 -39 -6 -44 -115 -87 -49 -20 -146
-59 -213 -86 -68 -28 -132 -51 -142 -51 -10 0 -27 12 -38 27 -11 16 -22 26
-25 23 -3 -4 170 -455 180 -469 6 -9 198 35 198 44 0 6 -28 13 -62 17 -96 10
-139 40 -182 126 -43 86 -44 86 199 184 118 48 229 87 247 87 26 1 34 -4 45
-29 7 -16 17 -30 22 -30 13 0 -1 43 -52 165 -45 108 -61 139 -63 120z"/>
<path d="M8957 3863 c-40 -90 -47 -112 -37 -118 5 -3 11 4 15 15 10 33 42 44
71 25 24 -15 170 -203 162 -209 -9 -7 -279 -26 -289 -20 -7 4 -9 21 -5 48 11
63 -6 36 -64 -107 -52 -127 -58 -160 -20 -120 23 26 33 28 233 52 l158 19 72
-29 c94 -39 110 -54 102 -96 -13 -69 14 -28 68 104 56 135 64 174 25 120 -27
-37 -57 -35 -162 9 l-86 36 -100 136 c-70 96 -100 145 -100 164 0 44 -15 33
-43 -29z"/>
<path d="M8726 3317 c-57 -93 -246 -431 -246 -440 0 -4 4 -7 9 -7 5 0 37 -16
71 -36 33 -20 63 -34 66 -31 3 3 -11 26 -30 52 -25 33 -36 57 -36 81 0 33 24
94 36 94 6 0 299 -167 397 -226 51 -31 66 -59 48 -92 -14 -26 -14 -35 -1 -30
12 4 160 261 154 267 -2 3 -17 -7 -32 -21 -15 -14 -35 -24 -46 -22 -31 5 -446
247 -446 260 0 6 19 28 41 49 39 35 45 37 93 33 28 -3 57 -7 65 -9 7 -2 15 1
17 6 2 6 -30 29 -71 52 l-75 42 -14 -22z"/>
<path d="M1320 3125 c-258 -38 -331 -42 -350 -20 -9 11 -17 12 -23 6 -11 -11
66 -151 82 -151 5 0 7 17 4 39 -5 37 -4 39 28 49 19 6 49 12 67 14 31 3 35 -1
82 -80 28 -46 47 -89 43 -95 -4 -7 -20 -29 -37 -49 -34 -44 -67 -49 -90 -16
-9 12 -18 19 -22 16 -7 -8 125 -248 137 -248 5 0 9 13 9 30 0 41 -5 33 254
374 58 77 106 146 106 153 0 18 -29 16 -290 -22z m100 -21 c0 -5 -71 -101
-116 -156 l-22 -28 -41 71 c-23 39 -41 74 -41 78 0 4 46 14 103 23 56 8 105
16 110 17 4 0 7 -2 7 -5z"/>
<path d="M1760 2859 c-1 -2 -3 -26 -5 -53 -3 -27 -8 -53 -12 -56 -5 -3 -46
-37 -93 -75 -47 -39 -87 -72 -90 -75 -3 -3 -30 -25 -60 -50 -30 -25 -61 -51
-68 -57 -24 -23 -61 -26 -88 -8 -49 32 -44 9 17 -65 74 -91 99 -107 65 -41
-13 25 -13 31 3 57 10 16 66 67 126 114 59 47 123 98 142 114 18 16 35 27 37
25 2 -2 -9 -65 -24 -139 -16 -74 -45 -209 -64 -300 -19 -91 -31 -169 -26 -173
4 -5 97 64 206 153 235 191 240 194 279 174 15 -8 30 -12 32 -10 8 8 -109 146
-118 140 -5 -3 -1 -16 8 -30 12 -19 14 -30 5 -49 -10 -21 -228 -205 -244 -205
-3 0 0 26 7 58 7 31 30 137 50 234 l37 176 -45 59 c-41 54 -76 91 -77 82z"/>
<path d="M8409 2797 c-19 -26 -60 -82 -92 -124 -55 -74 -63 -108 -15 -64 12
12 29 21 37 21 19 0 188 -119 379 -267 34 -26 38 -47 17 -95 -19 -47 19 -7 99
103 87 119 102 151 50 110 -15 -11 -33 -21 -41 -21 -22 0 -401 279 -408 300
-3 11 -1 29 5 40 24 44 2 42 -31 -3z"/>
<path d="M8199 2533 c-1 -5 -2 -17 -3 -28 0 -12 -17 -28 -42 -42 -93 -52 -154
-151 -140 -227 8 -41 55 -100 97 -122 39 -20 116 -18 185 6 109 38 149 50 168
50 10 0 34 -16 53 -35 31 -31 35 -40 30 -72 -8 -45 -39 -80 -95 -105 -50 -22
-102 -18 -164 13 -44 22 -48 23 -48 6 0 -20 136 -150 149 -142 7 4 9 15 6 25
-4 13 6 24 40 45 169 99 213 255 100 354 -67 58 -116 59 -271 6 -56 -19 -108
-35 -117 -35 -31 0 -66 23 -77 51 -42 101 94 183 220 133 23 -9 44 -14 47 -10
7 7 -116 136 -129 136 -4 0 -8 -3 -9 -7z"/>
<path d="M2115 2276 c-33 -30 -57 -57 -54 -60 4 -4 30 2 58 14 62 24 83 25
126 4 51 -24 143 -111 125 -118 -18 -7 -495 -138 -568 -157 -29 -7 -51 -16
-50 -20 3 -5 83 -80 322 -300 l51 -47 49 42 c27 22 63 53 80 68 44 37 28 43
-35 13 -68 -31 -102 -31 -165 0 -52 27 -159 121 -147 128 5 3 96 30 203 60
324 92 414 118 417 121 6 6 -327 306 -339 306 -7 0 -40 -25 -73 -54z"/>
<path d="M7808 2086 c-53 -19 -76 -35 -220 -154 -70 -57 -125 -108 -122 -113
3 -5 16 -2 29 7 14 9 33 13 44 9 18 -5 317 -353 328 -382 3 -7 -5 -26 -16 -42
-12 -16 -18 -32 -13 -35 9 -5 235 184 228 191 -2 3 -21 -1 -42 -9 l-37 -13
-60 65 c-74 81 -93 108 -81 120 5 5 74 -10 166 -37 l158 -46 70 57 c38 31 70
59 70 63 0 3 -10 3 -22 -1 -17 -4 -309 66 -326 79 -1 1 7 23 19 50 14 32 19
59 16 82 -9 50 -50 100 -95 113 -46 12 -48 12 -94 -4z m21 -111 c41 -37 71
-89 71 -123 0 -25 -73 -108 -87 -99 -23 15 -153 175 -153 190 0 25 61 67 97
67 24 0 44 -10 72 -35z"/>
<path d="M2560 1984 c0 -3 9 -17 20 -31 11 -14 20 -31 20 -38 0 -16 -268 -398
-287 -408 -14 -9 -30 -7 -65 8 -11 4 -18 3 -18 -3 0 -12 225 -172 240 -172 17
0 11 19 -10 30 -34 18 -24 56 37 143 31 45 60 86 64 91 8 9 179 -100 179 -114
0 -3 -28 -46 -63 -96 l-64 -89 -46 2 c-26 1 -47 -2 -47 -5 0 -12 235 -170 243
-165 5 3 -1 15 -12 27 -12 12 -21 30 -21 40 0 10 28 58 63 107 216 309 212
304 241 307 15 2 33 -2 41 -8 8 -7 15 -7 19 -1 5 8 -195 154 -231 168 -19 7
-16 -4 7 -27 11 -11 20 -27 20 -36 0 -8 -28 -55 -62 -104 l-61 -89 -57 40
c-111 79 -114 82 -100 109 25 47 102 145 120 154 13 6 27 4 44 -8 14 -9 27
-12 31 -7 3 6 -29 34 -70 63 -42 29 -96 68 -120 86 -44 32 -55 37 -55 26z"/>
<path d="M7300 1724 c-63 -36 -161 -91 -218 -121 -67 -36 -100 -59 -94 -65 6
-6 18 -6 32 2 17 9 26 8 44 -4 24 -15 246 -411 246 -439 0 -8 -11 -25 -25 -35
-54 -43 -5 -27 105 32 331 179 331 179 326 191 -2 6 -14 43 -27 83 -12 39 -28
72 -34 72 -6 0 -11 -22 -11 -53 -1 -67 -32 -128 -84 -166 -48 -35 -95 -55
-112 -48 -7 2 -39 51 -72 108 -55 96 -57 103 -40 116 10 7 37 13 61 13 35 0
50 -6 83 -36 22 -20 43 -34 46 -31 3 3 -5 25 -19 49 -13 23 -43 78 -66 120
-57 104 -79 119 -59 40 13 -52 0 -90 -42 -121 l-30 -21 -25 40 c-14 22 -39 69
-57 105 l-32 65 20 20 c11 12 46 31 78 44 70 29 124 21 172 -25 17 -16 33 -26
37 -23 7 7 -67 147 -80 151 -4 1 -60 -27 -123 -63z"/>
<path d="M3209 1520 c-136 -23 -238 -137 -254 -286 -11 -96 13 -163 83 -234
165 -165 408 -128 509 78 24 49 28 69 28 142 0 75 -3 91 -30 138 -35 65 -71
97 -150 133 -69 31 -121 39 -186 29z m193 -61 c56 -41 71 -114 43 -219 -17
-64 -75 -179 -118 -232 -97 -120 -257 -71 -257 80 0 117 106 319 195 374 41
24 100 23 137 -3z"/>
<path d="M6888 1487 c-78 -32 -102 -51 -50 -41 57 11 61 -2 64 -209 2 -103 1
-186 -2 -185 -3 2 -63 63 -133 137 -134 141 -149 168 -102 189 22 10 38 39 17
30 -5 -1 -65 -25 -135 -52 -127 -49 -152 -66 -98 -66 25 0 62 -34 249 -225
121 -124 223 -221 227 -216 3 6 8 147 11 313 5 282 7 304 25 320 19 16 26 39
12 37 -5 -1 -43 -15 -85 -32z"/>
<path d="M3690 1322 c0 -5 11 -15 25 -22 35 -19 33 -47 -20 -235 -48 -170 -53
-222 -31 -276 35 -83 174 -151 278 -135 101 15 146 78 193 266 57 224 64 240
111 240 48 0 22 17 -58 39 -46 12 -86 21 -90 21 -14 0 -8 -20 5 -20 23 0 47
-35 47 -66 0 -37 -81 -328 -103 -371 -27 -51 -63 -73 -119 -73 -102 0 -157 56
-144 144 9 59 84 351 98 381 11 26 22 30 71 26 51 -4 27 16 -40 34 -38 9 -98
26 -134 36 -73 21 -89 23 -89 11z"/>
<path d="M6270 1263 c-47 -14 -109 -32 -137 -40 -54 -15 -76 -40 -25 -29 16 4
34 1 44 -6 17 -13 138 -432 138 -477 0 -14 -11 -28 -30 -39 -30 -17 -39 -32
-19 -32 23 0 274 71 284 81 5 5 -6 9 -32 9 -22 0 -46 6 -52 14 -22 27 -135
459 -126 485 3 11 19 24 35 31 16 7 27 16 24 21 -6 11 0 12 -104 -18z"/>
<path d="M5933 1172 c-82 -15 -110 -32 -53 -32 20 0 34 -8 45 -24 14 -21 40
-139 60 -275 l6 -43 -184 159 -185 160 -78 -14 c-113 -20 -113 -20 -63 -52
l45 -28 37 -204 c46 -254 46 -265 7 -287 -35 -20 -40 -37 -7 -29 12 3 54 11
92 18 74 12 109 29 61 29 -40 0 -63 16 -75 52 -13 42 -63 359 -58 364 2 3 109
-86 238 -196 128 -110 236 -197 240 -193 3 5 -14 131 -40 281 l-46 274 28 22
c26 21 35 37 20 35 -5 -1 -45 -8 -90 -17z"/>
<path d="M4932 1092 c-69 -2 -110 -6 -107 -12 3 -6 15 -10 25 -10 41 0 50 -35
50 -190 1 -269 18 -322 116 -367 91 -42 231 -27 292 30 52 48 57 76 54 291 -2
214 4 246 48 246 11 0 20 5 20 10 0 6 -38 10 -95 10 -57 0 -95 -4 -95 -10 0
-5 11 -10 23 -10 13 0 32 -9 43 -21 17 -19 19 -41 22 -203 4 -204 -3 -248 -48
-291 -25 -24 -41 -30 -90 -33 -69 -5 -100 9 -127 61 -14 26 -17 69 -21 238 -4
200 -4 207 17 228 11 11 30 21 41 21 11 0 20 4 20 10 0 5 -17 9 -37 7 -21 -1
-89 -3 -151 -5z"/>
</g>
</svg>
